<svg width="460" height="460" viewBox="0 0 460 460" fill="none" xmlns="http://www.w3.org/2000/svg">
<g clip-path="url(#clip0_269_88)">
<path d="M51.8847 39.4861C43.3945 41.9568 38.7226 47.4822 36.6113 57.5447C35.7578 61.8123 35.7128 73.2224 36.5664 77.2654C37.8691 83.4646 40.3398 88.2263 43.3046 90.5174C46.3593 92.8533 48.875 93.572 53.9062 93.617C58.2187 93.6619 58.8476 93.572 61.2285 92.4041C62.666 91.6853 64.1484 90.6072 64.5078 90.0232C64.9121 89.4392 65.4062 89.0799 65.6308 89.2146C66.1699 89.5291 66.125 102.287 65.5859 106.869C64.6875 113.787 63.1601 115.898 58.9824 115.898C54.7148 115.898 53.0976 113.967 52.6933 108.441L52.4238 105.117H44.6523C40.3398 105.117 36.8359 105.252 36.8359 105.476C36.8359 106.959 37.914 113.832 38.4082 115.494C39.8457 120.48 42.496 123.849 46.4043 125.736C55.6132 130.273 69.1796 128.97 75.1093 122.996C77.5351 120.57 79.6015 116.662 80.8144 112.304C82.3867 106.644 82.746 99.7263 82.5664 78.9275C82.3418 60.9138 82.2968 59.2966 81.3984 56.1521C78.6132 46.1795 74.3007 41.5525 65.7656 39.3513C62.082 38.408 55.3886 38.4529 51.8847 39.4861ZM63.3847 52.5134C65.3613 54.8943 65.6757 56.9607 65.9003 67.6072L66.08 77.49L64.8222 78.8826C63.0253 80.8591 61.6777 81.4431 59.0273 81.4431C54.625 81.4431 53.1875 79.3767 52.4687 71.9646C52.0644 68.0564 52.0644 65.4959 52.4687 61.5877C53.3671 52.3338 54.58 50.5818 59.7011 50.9412C61.8574 51.0759 62.3066 51.2556 63.3847 52.5134Z" fill="#EC6B15"/>
<path d="M177.621 39.4863C174.926 40.6992 173.713 42.7207 173.488 46.1348C173.219 50.2676 174.297 52.1992 179.508 56.6914C183.91 60.5547 185.078 62.2168 185.078 64.7773C185.078 66.9785 184 68.2812 182.158 68.2812C180.676 68.2812 178.789 66.9336 178.789 65.8555C178.789 64.1934 177.756 61.9922 177.037 61.9922C175.195 61.9922 173.398 62.9805 173.398 63.9688C173.398 66.6641 175.645 70.4824 177.891 71.6504C178.699 72.0547 180.406 72.3242 182.293 72.3242C186.066 72.3242 187.953 71.291 189.48 68.2812C190.334 66.6641 190.514 65.7656 190.334 63.7441C190.02 60.1055 189.121 58.7129 183.686 53.457L178.789 48.6953V46.4043C178.789 44.5176 178.969 43.9336 179.777 43.3945C182.068 41.7773 184.404 43.125 184.898 46.2695C185.213 48.2461 185.527 48.3359 188.268 47.4824L189.93 46.9434L189.346 44.7871C188.672 42.0469 187.459 40.4297 185.482 39.4414C183.461 38.4082 179.912 38.4531 177.621 39.4863Z" fill="#EC6B15"/>
<path d="M315.127 39.4865C310.859 41.4631 310.41 42.9455 310.455 55.5685C310.5 67.7873 310.814 69.1349 314.453 71.381C316.654 72.7287 322.359 72.7287 324.74 71.426C328.289 69.4045 329.277 65.8556 329.277 55.299C329.277 47.797 328.648 43.8888 327.166 41.8224C325.01 38.8576 319.035 37.6896 315.127 39.4865ZM322.135 43.5295C323.213 44.383 323.213 44.5177 323.348 54.2658C323.527 65.2267 323.213 67.383 321.416 68.1916C319.709 69.0002 318.676 68.8654 317.283 67.6525L316.025 66.5744L315.891 56.5568C315.801 51.0314 315.891 46.0451 316.025 45.506C316.699 42.8556 319.978 41.7775 322.135 43.5295Z" fill="#EC6B15"/>
<path d="M397.289 39.4863C395.313 40.3848 393.965 42.002 393.156 44.4277C392.303 46.8535 392.438 64.5078 393.291 66.9785C394.684 70.9316 396.93 72.3242 401.916 72.3242C404.701 72.3242 405.734 72.1445 406.992 71.3809C410.676 69.1348 411.125 67.6074 411.35 56.9609C411.619 44.877 410.766 41.7773 406.543 39.6211C404.027 38.3633 399.94 38.2734 397.289 39.4863ZM404.342 43.5293C405.42 44.3828 405.42 44.5176 405.555 54.4453C405.734 65.8555 405.465 67.4277 403.354 68.2812C401.422 69.0898 399.76 68.416 398.816 66.4844C398.143 65.1367 398.008 63.5645 398.008 55.6133C398.008 46.2695 398.277 44.293 399.67 43.2148C400.793 42.4062 403.129 42.541 404.342 43.5293Z" fill="#EC6B15"/>
<path d="M102.422 55.7031V72.3242H105.342H108.262V55.7031V39.082H105.342H102.422V55.7031Z" fill="#EC6B15"/>
<path d="M111.855 55.6582V72.3242H114.102H116.348L116.438 62.3066L116.572 52.334L118.145 55.7031C119.043 57.5449 120.975 62.0371 122.412 65.6758L125.107 72.3242H126.814H128.477V55.7031V39.082H126.23H123.984V48.6055C123.984 54.9844 123.805 57.9492 123.535 57.5C123.311 57.1406 122.502 55.3887 121.783 53.6816C121.02 51.9297 119.312 48.0215 117.965 44.9219L115.539 39.3066L113.697 39.1719L111.855 39.0371V55.6582Z" fill="#EC6B15"/>
<path d="M132.07 55.6582V72.3242H136.607C141.908 72.3242 144.738 71.7402 146.85 70.168C149.275 68.3711 149.725 66.7539 149.949 58.3086C150.443 41.1484 149.365 39.4414 138.045 39.1719L132.07 38.9922V55.6582ZM143.301 44.1133C144.154 45.0566 144.199 45.6406 144.199 55.5684V66.0801L143.076 67.1582C142.223 68.0566 141.549 68.2812 139.707 68.2812H137.461V55.7031V43.125H139.932C141.863 43.125 142.537 43.3496 143.301 44.1133Z" fill="#EC6B15"/>
<path d="M152.824 52.873C152.959 65.9004 153.004 66.7988 153.902 68.5059C155.295 71.1562 157.586 72.3242 161.539 72.3242C166.436 72.3242 168.592 71.1562 170.029 67.6973C170.568 66.3496 170.703 63.6992 170.703 52.5586V39.082H168.008H165.312V52.6934C165.312 65.6309 165.268 66.3496 164.414 67.248C163.201 68.5957 161.943 68.8652 160.506 68.1914C158.26 67.1133 158.125 66.3945 158.125 52.1992V39.082H155.43H152.689L152.824 52.873Z" fill="#EC6B15"/>
<path d="M190.02 41.1035V43.125H192.939H195.859V57.7246V72.3242H198.555H201.25V57.7246V43.125H203.945H206.641V41.1035V39.082H198.33H190.02V41.1035Z" fill="#EC6B15"/>
<path d="M207.988 55.7031V72.3242H210.684H213.379V64.6426V57.0059L215.086 57.1406C216.658 57.2754 216.793 57.4102 217.242 59.2969C217.557 60.4199 218.41 63.6992 219.174 66.6191C219.938 69.5391 220.566 72.0098 220.566 72.0996C220.566 72.2344 221.779 72.3242 223.262 72.3242C224.744 72.3242 225.957 72.1445 225.957 71.875C225.957 71.5156 225.598 70.2129 224.16 64.9121C223.396 62.2168 222.408 58.5781 221.959 57.2305C221.6 55.9277 221.689 55.7031 222.902 54.8047C226.271 52.2891 226.631 44.6973 223.486 41.5977C221.555 39.666 219.129 39.082 212.975 39.082H207.988V55.7031ZM218.096 43.125C219.398 43.6191 220.566 45.9102 220.566 47.9766C220.566 51.5254 218.68 53.457 215.176 53.457H213.379V48.0664V42.6758H215.131C216.119 42.6758 217.422 42.8555 218.096 43.125Z" fill="#EC6B15"/>
<path d="M226.855 39.4863C226.855 39.7109 228.293 44.1582 230 49.3691L233.145 58.8027V65.5859V72.3242H235.84H238.535V66.0352V59.7461L241.904 49.5488C243.746 43.9785 245.273 39.3066 245.273 39.2168C245.273 39.127 244.15 39.082 242.758 39.1719L240.197 39.3066L238.67 44.4727C237.771 47.3027 237.008 50.1777 236.873 50.8516C236.379 53.502 235.75 52.2891 233.145 43.6641L231.752 39.082H229.281C227.934 39.082 226.855 39.2617 226.855 39.4863Z" fill="#EC6B15"/>
<path d="M260.996 55.7031V72.3242H263.691H266.387V55.7031V39.082H263.691H260.996V55.7031Z" fill="#EC6B15"/>
<path d="M269.98 55.7031V72.3242H272.227H274.473V62.4414C274.473 57.0059 274.652 52.5586 274.832 52.5586C275.281 52.5586 275.82 53.6367 277.707 58.3984C278.426 60.2402 279.324 62.4414 279.684 63.2051C280.492 65.1367 281.346 67.0684 282.559 69.9434C283.547 72.2344 283.637 72.3242 285.299 72.3242H287.051V55.7031V39.082H284.805H282.559L282.469 48.0664C282.379 53.0078 282.154 57.0508 281.93 57.0957C281.57 57.0957 279.684 53.0527 277.572 47.8418C277.078 46.6289 276.18 44.6074 275.641 43.3496C275.057 42.1367 274.473 40.6543 274.293 40.0703C274.023 39.2617 273.664 39.082 271.957 39.082H269.98V55.7031Z" fill="#EC6B15"/>
<path d="M290.195 55.658V72.324H292.666H295.137V62.3514C295.137 56.0174 295.271 52.5135 295.586 52.8279C295.811 53.0525 297.113 55.9725 298.506 59.2967C304.57 73.9412 303.672 72.324 305.559 72.324H307.266V55.7029V39.0818H305.02H302.773V48.6053C302.773 54.49 302.594 57.949 302.369 57.6795C302.145 57.4549 301.516 56.242 301.021 55.0291C300.527 53.7713 298.82 49.7283 297.203 46.0447L294.283 39.3064L292.217 39.1717L290.195 39.0369V55.658Z" fill="#EC6B15"/>
<path d="M330.625 39.5762C330.625 39.8906 331.479 44.2031 332.467 49.1445C333.5 54.1309 334.982 61.3184 335.746 65.1367L337.139 72.0996L339.879 72.2344L342.619 72.3691L342.889 70.8867C343.023 70.0781 344.551 62.5762 346.258 54.2207L349.312 39.082H346.797H344.236L343.967 40.9688C343.832 42.0469 343.518 44.0234 343.248 45.3711C342.979 46.7188 342.35 50.2676 341.855 53.2324C341.316 56.1973 340.777 59.2969 340.643 60.1055C340.418 61.3184 339.609 62.666 339.609 61.7676C339.609 61.6328 339.34 60.0605 338.98 58.2637C338.621 56.4668 337.812 52.1992 337.139 48.7402C335.117 38.0938 335.656 39.3066 332.961 39.1719C331.344 39.082 330.625 39.2168 330.625 39.5762Z" fill="#EC6B15"/>
<path d="M355.152 39.6211C355.062 39.9355 354.523 42.4062 353.984 45.1465C353.445 47.8418 352.771 51.3008 352.412 52.7832C352.098 54.2656 351.604 56.6914 351.289 58.1738C350.795 60.7793 350.525 61.9922 349.582 66.709C349.312 67.9219 348.998 69.7188 348.818 70.6172L348.549 72.3242H351.02H353.49L353.939 70.6172C354.209 69.7188 354.434 68.416 354.434 67.7422C354.434 67.0684 354.613 66.0352 354.883 65.3613C355.287 64.2383 355.467 64.1934 358.342 64.3281L361.307 64.4629L361.891 67.1582C362.205 68.6406 362.475 70.3926 362.475 71.0664C362.52 72.2793 362.564 72.3242 365.26 72.3242C367.641 72.3242 367.955 72.2344 367.73 71.5156C367.596 71.1113 367.191 69.1348 366.787 67.1582C365.889 62.4863 365.215 59.0273 364.766 56.8262C364.541 55.8379 364.137 53.8164 363.867 52.334C363.553 50.8516 363.059 48.5156 362.744 47.168C362.43 45.8203 361.936 43.4395 361.621 41.8672L361.037 39.082H358.162C356.275 39.082 355.242 39.2617 355.152 39.6211ZM358.881 49.5039C359.959 55.0742 360.723 60.2852 360.498 60.6895C360.318 60.9141 359.24 61.0938 357.982 61.0938C355.377 61.0938 355.422 61.4082 356.68 54.5352C357.174 51.8398 357.578 49.0996 357.578 48.3809C357.578 46.3145 358.387 47.0332 358.881 49.5039Z" fill="#EC6B15"/>
<path d="M366.113 41.1035V43.125H368.809H371.504V57.7246V72.3242H374.424H377.344V57.7246V43.125H380.039H382.734V41.1035V39.082H374.424H366.113V41.1035Z" fill="#EC6B15"/>
<path d="M383.633 55.7031V72.3242H386.553H389.473V55.7031V39.082H386.553H383.633V55.7031Z" fill="#EC6B15"/>
<path d="M414.18 55.7031V72.3242H416.426H418.672V62.4414C418.672 57.0059 418.852 52.5586 419.076 52.5586C419.48 52.5586 419.795 53.3223 424.871 65.5859L427.611 72.0996L429.408 72.2344L431.25 72.3691V55.748V39.082H429.004H426.758V48.5605C426.758 56.5566 426.668 57.9941 426.129 57.5449C425.814 57.2754 425.186 56.0625 424.736 54.8945C424.287 53.7266 423.389 51.5703 422.715 50.0879C422.086 48.6055 420.738 45.5059 419.75 43.2598L417.998 39.082H416.111H414.18V55.7031Z" fill="#EC6B15"/>
<path d="M245.273 69.6288V72.3241H246.846C248.822 72.3241 248.912 73.2225 247.07 75.1092C246.352 75.828 245.723 76.5917 245.723 76.8163C245.723 78.3436 248.867 76.996 249.721 75.1542C249.99 74.5702 250.215 72.4588 250.215 70.5272V66.9335H247.744H245.273V69.6288Z" fill="#EC6B15"/>
<path d="M107.184 95.5488C107.004 96.4922 106.689 98.0645 106.465 99.0527C106.285 100.041 105.881 101.973 105.611 103.32C105.342 104.668 104.623 108.217 103.994 111.182C103.365 114.146 102.467 118.594 101.973 121.064C101.478 123.535 100.939 125.916 100.805 126.32C100.58 127.039 100.894 127.129 103.186 127.129H105.836L106.42 124.074C107.363 119.133 107.049 119.492 110.508 119.492C113.787 119.492 114.102 119.717 114.102 122.008C114.102 122.637 114.326 124.029 114.596 125.152L115.09 127.129H117.516C118.863 127.129 119.941 126.949 119.941 126.725C119.941 126.5 119.492 124.209 118.998 121.648C118.459 119.088 117.875 116.213 117.695 115.225C117.471 114.236 117.111 112.215 116.797 110.732C116.482 109.25 116.078 107.229 115.898 106.24C115.674 105.252 115.314 103.23 115.045 101.748C114.775 100.266 114.281 97.9297 113.967 96.582L113.428 94.1113L110.463 93.9766L107.498 93.8418L107.184 95.5488ZM111.137 103.859C111.541 106.375 112.305 111.137 112.754 113.518C112.934 114.551 112.978 115.539 112.844 115.674C112.709 115.809 111.631 115.898 110.418 115.898C108.307 115.898 108.262 115.854 108.262 114.551C108.262 113.832 108.441 112.26 108.666 111.092C108.891 109.924 109.34 107.363 109.654 105.432C109.969 103.545 110.373 101.973 110.553 101.973C110.732 101.973 111.002 102.826 111.137 103.859Z" fill="#EC6B15"/>
<path d="M122.637 110.508V127.129H124.883H127.129V117.156C127.129 110.957 127.309 107.363 127.533 107.588C127.893 107.992 129.959 112.799 134.676 124.299C135.799 127.084 135.844 127.129 137.551 127.129H139.258V110.508V93.8867H137.012H134.766V103.41C134.766 109.07 134.586 112.754 134.361 112.484C134.137 112.26 133.014 109.834 131.846 107.139C130.678 104.398 129.375 101.389 128.926 100.4C128.477 99.4121 127.668 97.5254 127.129 96.2227C126.141 93.9766 126.051 93.8867 124.389 93.8867H122.637V110.508Z" fill="#EC6B15"/>
<path d="M143.301 110.508V127.129H148.018C156.463 127.129 159.607 125.646 160.775 121.154C161.449 118.324 161.449 101.973 160.73 99.5918C159.473 95.3691 156.193 93.8867 147.973 93.8867H143.301V110.508ZM154.307 99.0078C155.744 100.445 156.014 102.691 155.789 112.17C155.564 122.547 155.25 123.131 150.533 123.266L148.916 123.311L148.781 110.598L148.691 97.9297H150.938C152.734 97.9297 153.453 98.1543 154.307 99.0078Z" fill="#EC6B15"/>
<path d="M173.398 110.508V127.129H176.094H178.789V110.508V93.8867H176.094H173.398V110.508Z" fill="#EC6B15"/>
<path d="M182.832 110.508V127.129H185.303H187.773V117.156C187.773 111.676 187.953 107.363 188.133 107.588C188.312 107.857 189.166 109.654 189.975 111.631C190.783 113.607 191.816 116.033 192.266 117.021C192.67 118.01 193.793 120.705 194.736 122.951L196.443 127.129H198.15H199.902V110.508V93.8867H197.656H195.41L195.32 103.41L195.186 112.979L193.793 110.059C193.029 108.441 191.143 104.174 189.525 100.49L186.65 93.8867H184.764H182.832V110.508Z" fill="#EC6B15"/>
<path d="M203.945 110.508V127.129H206.641H209.336L209.426 119.582L209.561 112.08L212.615 111.945L215.625 111.811V110.059V108.307L212.615 108.172L209.561 108.037V102.871V97.7051L213.514 97.5703L217.422 97.4355V95.6836V93.8867H210.684H203.945V110.508Z" fill="#EC6B15"/>
<path d="M219.219 110.508V127.129H222.139H225.059V119.492V111.855H226.631C227.484 111.855 228.203 111.945 228.203 112.08C228.203 112.17 228.473 113.338 228.832 114.64C229.191 115.943 229.91 118.638 230.449 120.615C232.291 127.623 231.932 127.129 234.986 127.129C236.424 127.129 237.637 126.994 237.637 126.859C237.637 126.724 236.604 123.086 235.346 118.773L233.055 111.002L234.852 109.295C236.334 107.902 236.693 107.183 236.963 105.207C237.143 103.949 237.143 101.793 236.963 100.49C236.693 98.6033 236.334 97.8396 234.986 96.5818C232.83 94.5154 230.27 93.8865 224.16 93.8865H219.219V110.508ZM229.551 98.1541C231.303 99.0525 231.797 100.086 231.797 102.826C231.797 106.779 230.449 108.261 226.855 108.261H225.059V102.871V97.4802H226.631C227.529 97.4802 228.832 97.7947 229.551 98.1541Z" fill="#EC6B15"/>
<path d="M245.723 94.2461C245.723 94.4258 245.094 97.4805 244.375 101.074C243.611 104.668 242.174 111.631 241.186 116.572C240.197 121.514 239.299 125.916 239.164 126.32C238.939 127.039 239.254 127.129 241.59 127.129H244.24L244.779 123.85C245.094 122.098 245.453 120.346 245.543 120.031C245.633 119.672 246.711 119.492 248.822 119.492C252.146 119.492 252.461 119.717 252.461 122.008C252.461 122.637 252.686 124.029 252.955 125.152L253.449 127.129H255.92H258.346L258.076 125.422C257.941 124.523 257.627 122.951 257.402 121.963C257.223 120.975 256.773 118.953 256.504 117.471C255.426 111.945 255.156 110.643 254.527 107.812C254.168 106.195 253.629 103.68 253.359 102.197C253.09 100.715 252.641 98.7832 252.416 97.8848C252.191 96.9863 252.012 95.7285 252.012 95.0547C252.012 93.8867 251.967 93.8867 248.867 93.8867C247.16 93.8867 245.723 94.0215 245.723 94.2461ZM250.17 108.396C250.709 111.9 251.248 114.955 251.293 115.225C251.293 115.449 250.17 115.719 248.777 115.809C247.34 115.898 246.172 115.764 246.172 115.584C246.172 115.404 246.666 112.395 247.295 108.936C247.924 105.477 248.418 102.512 248.418 102.287C248.418 102.107 248.553 101.973 248.777 101.973C248.957 101.973 249.586 104.848 250.17 108.396Z" fill="#EC6B15"/>
<path d="M263.467 94.7402C261.041 96.1777 260.098 98.1094 260.098 101.703C260.098 104.848 260.816 106.914 262.479 108.441C262.793 108.711 264.635 110.328 266.566 112.08C270.744 115.764 271.777 117.291 271.777 119.762C271.777 122.008 270.609 123.221 268.543 123.176C266.656 123.131 265.623 121.963 264.949 119.178C264.455 117.111 264.275 116.842 263.377 117.021C259.963 117.74 260.098 117.65 260.098 119.268C260.098 123.805 264.096 127.578 268.768 127.578C274.338 127.533 277.977 122.951 276.809 117.426C276.314 115 274.293 111.496 272.721 110.418C272.271 110.104 270.699 108.756 269.172 107.408C265.039 103.77 263.961 100.76 266.162 98.6035C266.746 97.9746 267.645 97.4805 268.139 97.4805C269.666 97.4805 271.373 99.3223 271.643 101.344L271.867 103.141L274.068 102.691C276.09 102.287 276.27 102.152 276.27 100.984C276.27 99.0078 274.473 95.6836 272.945 94.7402C271.059 93.6172 265.443 93.6172 263.467 94.7402Z" fill="#EC6B15"/>
<path d="M277.168 95.9082V97.9297H280.088H283.008V112.529V127.129H285.703H288.398V112.529V97.9297H291.094H293.789V95.9082V93.8867H285.479H277.168V95.9082Z" fill="#EC6B15"/>
<path d="M295.586 110.463V127.129H298.281H300.977V119.492V111.855H302.684H304.391L305.873 117.785C306.682 121.064 307.58 124.523 307.805 125.422L308.299 127.129H311.084H313.869L313.285 124.973C312.971 123.805 311.938 120.166 311.039 116.842L309.332 110.867L310.545 109.969C312.521 108.531 313.105 106.914 313.105 102.781C313.105 95.9082 310.859 94.2461 301.336 93.9766L295.586 93.7969V110.463ZM305.424 97.9746C306.232 98.2441 307.131 99.0527 307.49 99.7715C308.838 102.332 307.984 106.689 305.963 107.812C305.469 108.037 304.166 108.262 303.043 108.262H300.977V103.186C300.977 100.355 301.111 97.9297 301.291 97.7949C301.74 97.3008 303.807 97.4355 305.424 97.9746Z" fill="#EC6B15"/>
<path d="M316.789 107.678C316.969 122.277 317.148 123.535 319.26 125.422C322.719 128.566 330.85 128.027 333.141 124.523C334.803 121.963 335.117 119.222 335.117 106.33V93.8865H332.422H329.727V106.689C329.727 116.752 329.592 119.851 329.098 121.064C327.975 123.67 325.684 124.254 323.572 122.457L322.314 121.379L322.18 107.633L322.045 93.8865H319.35H316.609L316.789 107.678Z" fill="#EC6B15"/>
<path d="M342.035 95.0095C340.688 95.8181 339.924 96.7166 339.205 98.3338C338.352 100.4 338.262 101.344 338.262 110.328C338.262 121.199 338.531 122.816 340.777 124.972C342.574 126.724 344.506 127.488 347.291 127.533C353.086 127.623 356.23 124.119 356.23 117.605V115H353.535H350.84V118.144C350.84 120.929 350.705 121.469 349.717 122.412C348.324 123.849 346.752 123.849 345.135 122.457L343.877 121.379V110.597V99.8162L344.955 98.6482C346.303 97.2107 348.055 97.1209 349.672 98.4236C350.75 99.2771 350.84 99.6365 350.84 102.467V105.566H353.58H356.365L356.141 102.287C355.691 95.9978 353.535 93.8865 347.426 93.8865C344.461 93.8865 343.562 94.0662 342.035 95.0095Z" fill="#EC6B15"/>
<path d="M357.129 95.9082V97.9297H359.824H362.52V112.529V127.129H365.439H368.359V112.529V97.9297H371.055H373.75V95.9082V93.8867H365.439H357.129V95.9082Z" fill="#EC6B15"/>
<path d="M375.098 106.689C375.098 115.494 375.277 120.121 375.682 121.603C376.715 125.601 380.578 127.937 385.385 127.488C388.754 127.174 390.82 125.871 392.123 123.265C393.246 121.109 393.246 120.929 393.426 107.453L393.605 93.8865H390.91H388.215L388.035 107.633L387.9 121.379L386.643 122.457C385.025 123.804 383.588 123.804 381.971 122.457L380.713 121.379L380.578 107.633L380.443 93.8865H377.793H375.098V106.689Z" fill="#EC6B15"/>
<path d="M397.109 110.508V127.129H400.029H402.949V119.492V111.855H404.432C405.869 111.855 405.869 111.9 406.812 115.314C407.352 117.246 408.25 120.705 408.834 122.951L409.867 127.129H412.742C414.854 127.129 415.572 126.994 415.438 126.545C415.303 126.275 414.584 123.76 413.775 121.064C413.012 118.324 412.203 115.494 411.979 114.775C410.9 111.316 410.945 110.688 412.113 109.879C414.045 108.666 414.809 106.6 414.809 102.871C414.809 95.9531 411.844 93.8867 401.871 93.8867H397.109V110.508ZM406.947 97.9746C408.699 98.6035 409.688 100.4 409.688 103.051C409.688 106.779 408.295 108.262 404.746 108.262H402.949V102.871V97.4805H404.252C404.926 97.4805 406.139 97.7051 406.947 97.9746Z" fill="#EC6B15"/>
<path d="M418.672 110.508V127.129H425.41H432.148V125.332V123.58L428.24 123.445L424.287 123.311L424.152 117.561L424.018 111.855H427.207H430.352V109.834V107.812H427.207H424.018L424.152 102.736L424.287 97.7051L428.24 97.5703L432.148 97.4355V95.6836V93.8867H425.41H418.672V110.508Z" fill="#EC6B15"/>
<path d="M228.428 172.904C226.945 173.848 224.834 175.105 223.711 175.734C220.746 177.396 218.814 178.52 216.254 180.002C215.041 180.766 213.109 181.844 211.986 182.473C208.887 184.27 207.045 185.303 204.574 186.74C203.361 187.504 201.43 188.627 200.307 189.211C198.42 190.334 190.918 194.646 187.908 196.353C187.1 196.848 185.752 197.611 184.898 198.061C184.045 198.555 182.518 199.453 181.529 200.082C180.541 200.756 179.643 201.25 179.508 201.25C178.969 201.25 173.084 205.068 172.725 205.697C172.455 206.146 172.186 218.455 172.051 238.939L171.826 271.418L144.109 287.455C128.881 296.26 116.078 303.852 115.719 304.346C115.135 305.109 115.045 309.602 115 339.025V372.807L116.033 373.93C116.842 374.873 126.59 380.713 136.113 386.014C137.461 386.777 140.381 388.484 142.582 389.787C144.783 391.09 146.625 392.168 146.715 392.168C146.805 392.168 148.691 393.291 150.982 394.639C153.229 395.986 155.16 397.109 155.25 397.109C155.295 397.109 157.676 398.457 160.461 400.074C163.246 401.736 166.66 403.668 168.008 404.432C169.355 405.195 171.287 406.318 172.275 406.947C173.354 407.621 174.701 408.07 175.645 408.025C176.857 408.025 183.326 404.477 204.889 391.988L232.605 375.951L260.367 392.033C275.686 400.838 288.623 408.16 289.162 408.25C289.791 408.385 291.498 407.666 293.654 406.453C295.586 405.33 298.057 403.937 299.18 403.309C300.303 402.68 303.492 400.838 306.277 399.176C309.062 397.559 311.443 396.211 311.533 396.211C311.668 396.211 312.791 395.537 314.094 394.728C315.396 393.875 317.598 392.617 318.945 391.853C320.293 391.135 323.123 389.473 325.234 388.26C327.346 387.002 329.951 385.52 331.074 384.891C332.197 384.262 335.387 382.42 338.172 380.758C340.957 379.141 343.338 377.793 343.428 377.793C343.877 377.793 348.863 374.469 349.402 373.84C349.807 373.301 349.941 365.664 349.941 339.16C349.941 310.006 349.852 305.064 349.268 304.256C348.908 303.762 336.061 296.08 320.742 287.275L292.891 271.193L292.801 238.355L292.666 205.562L290.195 203.855C288.848 202.957 287.59 202.193 287.41 202.193C287.275 202.148 285.523 201.205 283.592 200.082C279.908 197.881 278.201 196.893 274.922 195.051C273.799 194.422 271.598 193.164 270.025 192.176C268.498 191.232 267.105 190.469 267.061 190.469C266.971 190.469 264.59 189.121 261.805 187.504C259.02 185.842 255.83 184 254.752 183.371C253.629 182.742 251.697 181.664 250.484 180.9C247.43 179.103 245.543 178.025 242.578 176.408C241.23 175.645 239.344 174.566 238.4 173.982C232.965 170.568 232.291 170.523 228.428 172.904ZM202.238 226.855C214.682 234.043 224.834 240.107 224.834 240.377C224.834 240.781 180.361 266.791 179.598 266.836C179.373 266.836 179.238 254.887 179.238 240.332C179.238 225.732 179.328 213.828 179.463 213.828C179.553 213.828 189.84 219.713 202.238 226.855ZM286.152 240.377C286.152 262.344 286.062 266.881 285.568 266.746C284.67 266.566 239.883 240.646 239.883 240.332C239.883 240.062 285.344 213.828 285.838 213.828C286.018 213.828 286.152 225.777 286.152 240.377ZM229.102 273.125C229.102 288.982 228.922 299.629 228.697 299.629C228.473 299.629 226.496 298.596 224.295 297.338C222.139 296.08 219.533 294.598 218.545 294.014C217.557 293.475 214.816 291.902 212.48 290.51C210.145 289.162 205.607 286.557 202.373 284.715C185.348 274.922 182.832 273.395 183.191 273.035C183.596 272.631 202.104 261.895 202.418 261.895C202.508 261.895 203.631 261.221 204.934 260.412C206.236 259.559 208.438 258.301 209.785 257.537C211.133 256.773 215.895 254.033 220.342 251.428C224.789 248.822 228.562 246.666 228.787 246.666C228.967 246.621 229.102 258.525 229.102 273.125ZM245.857 252.057C250.619 254.797 255.381 257.582 256.504 258.166C257.627 258.795 259.738 260.053 261.221 260.951C262.703 261.85 264.859 263.062 265.982 263.691C272.406 267.24 282.109 272.945 282.109 273.215C282.109 273.439 275.416 277.482 268.408 281.436C267.42 282.02 264.814 283.502 262.568 284.805C260.367 286.107 257.807 287.59 256.953 288.039C256.1 288.533 251.203 291.363 246.127 294.283C241.051 297.248 236.648 299.629 236.334 299.629C235.975 299.629 235.84 292.666 235.84 273.08C235.84 249.361 235.93 246.531 236.514 246.801C236.918 246.936 241.096 249.316 245.857 252.057ZM293.025 279.279C294.957 280.492 296.844 281.57 300.527 283.592C301.875 284.355 304.076 285.613 305.379 286.467C306.682 287.275 307.805 287.949 307.939 287.949C308.029 287.949 310.41 289.297 313.195 290.914C315.98 292.576 319.395 294.508 320.742 295.271C322.09 296.035 325.01 297.742 327.211 299.045C329.412 300.348 331.254 301.426 331.344 301.426C331.973 301.426 339.115 306.053 338.936 306.367C338.801 306.547 337.543 307.4 336.105 308.209C330.041 311.623 328.199 312.701 325.414 314.318C324.201 315.082 322.27 316.16 321.146 316.789C320.068 317.418 317.373 318.99 315.127 320.293C312.926 321.596 310.275 323.078 309.287 323.662C305.873 325.594 298.955 329.592 294.598 332.152C290.33 334.623 288.982 335.072 288.129 334.264C287.904 334.039 286.826 333.365 285.703 332.781C282.738 331.119 280.941 330.086 277.033 327.75C275.102 326.627 273.439 325.684 273.35 325.684C273.26 325.684 270.654 324.156 267.51 322.314C264.41 320.473 261.76 318.945 261.715 318.945C261.625 318.945 259.783 317.867 257.582 316.564C255.381 315.262 252.461 313.555 251.113 312.791C246.711 310.365 240.557 306.771 240.197 306.367C239.838 306.053 240.871 305.289 244.51 303.268C247.07 301.83 248.867 300.797 251.383 299.314C252.596 298.551 254.527 297.473 255.65 296.844C258.75 295.047 260.592 294.014 263.062 292.576C264.275 291.812 266.207 290.734 267.33 290.105C270.43 288.309 272.271 287.275 274.742 285.838C275.955 285.074 277.887 283.951 279.01 283.367C280.088 282.738 282.918 281.121 285.254 279.773C289.881 277.078 289.566 277.123 293.025 279.279ZM128.701 316.025C131.441 317.598 134.361 319.26 135.215 319.754C136.068 320.248 144.693 325.189 154.307 330.76L171.826 340.912L171.961 369.662C172.006 385.52 171.961 398.457 171.781 398.457C171.646 398.457 160.461 392.033 146.85 384.217L122.188 369.977V341.271C122.188 314.094 122.232 312.566 122.996 312.881C123.4 313.016 126.006 314.453 128.701 316.025ZM229.102 339.16C229.102 353.715 228.967 365.664 228.832 365.664C228.697 365.664 224.699 363.418 219.982 360.678C215.221 357.893 210.549 355.197 209.561 354.658C208.572 354.074 205.967 352.592 203.721 351.289C201.52 349.986 198.779 348.414 197.701 347.785C196.578 347.156 194.646 346.078 193.434 345.314C192.176 344.596 190.02 343.338 188.672 342.619C185.303 340.777 182.832 339.205 182.832 338.936C182.832 338.801 183.191 338.531 183.641 338.352C184.045 338.172 185.932 337.139 187.773 336.061C194.916 331.883 201.564 328.02 203.496 326.941C204.619 326.312 206.551 325.189 207.809 324.471C209.021 323.707 210.953 322.629 212.076 322C215.176 320.203 217.018 319.17 219.488 317.732C224.654 314.633 228.293 312.656 228.787 312.656C228.967 312.656 229.102 324.561 229.102 339.16ZM343.203 341.271L343.158 369.932L318.631 384.082C305.109 391.853 293.789 398.277 293.475 398.367C292.98 398.502 292.891 392.977 292.891 369.842V341.137L305.289 333.994C312.117 330.041 318.541 326.312 319.574 325.728C321.281 324.785 336.061 316.205 340.283 313.734C341.271 313.15 342.35 312.701 342.664 312.656C343.068 312.656 343.203 318.676 343.203 341.271ZM202.373 358.521C214.861 365.754 225.059 371.773 225.059 371.908C225.059 372.043 224.609 372.492 224.07 372.807C222.992 373.48 199.273 387.182 195.859 389.113C194.736 389.742 191.547 391.584 188.762 393.246C185.977 394.863 183.596 396.211 183.461 396.211C183.326 396.211 182.473 396.705 181.574 397.334C180.676 397.963 179.777 398.457 179.598 398.457C179.373 398.457 179.238 386.508 179.238 371.953C179.238 357.353 179.328 345.449 179.463 345.449C179.598 345.449 189.93 351.334 202.373 358.521Z" fill="#EC6B15"/>
<path d="M0 230V460H230H460V230V0H230H0V230ZM65.7207 38.8574C75.1094 40.834 80.6797 47.707 82.4766 59.5215C83.375 65.3164 83.3301 100.4 82.4316 106.689C80.6797 119.178 75.6934 125.826 66.4844 128.072C63.3398 128.836 54.4004 128.836 51.2109 128.027C45.8203 126.725 42.1367 124.164 39.8008 120.211C38.0938 117.291 36.8359 112.17 36.8359 108.172V104.668H44.9219H53.0078V106.959C53.0078 112.574 54.9395 115.449 58.668 115.449C63.1602 115.449 64.418 113.473 65.1367 105.432C65.6758 99.2773 65.7207 90.293 65.2266 90.293C65.002 90.293 64.4629 90.7422 63.9688 91.2363C61.4531 94.0664 53.6816 95.1895 48.1562 93.4824C40.8789 91.2812 36.791 84.6777 35.4883 72.9082C34.9492 68.1465 35.3984 60.2402 36.4766 55.7031C37.1055 52.9629 40.1152 46.8086 41.6426 45.1016C44.7422 41.6875 49.6387 39.082 54.1309 38.498C57.2754 38.0938 62.8906 38.2285 65.7207 38.8574ZM186.291 39.2617C187.055 39.6211 188.088 40.6094 188.627 41.418L189.57 42.9004V40.7441V38.5879L204.979 38.7227C220.207 38.8574 220.342 38.8574 222.184 39.9355C224.924 41.5078 225.957 43.6191 225.957 47.752C225.957 51.5703 225.193 53.8164 223.441 55.209L222.229 56.1523L223.262 59.8809C223.801 61.9023 224.834 65.541 225.508 67.9219C226.182 70.3027 226.631 72.4141 226.496 72.5488C226.047 72.998 220.611 72.7734 220.342 72.2793C220.162 72.0098 219.174 68.5508 218.141 64.5527C216.299 57.5449 216.164 57.2754 215.041 57.1406L213.828 57.0059V64.8672V72.7734H210.684H207.539V58.0391V43.3496L204.619 43.4844L201.699 43.6641V58.2188V72.7734H198.555H195.41V58.1738V43.5742H192.535H189.66L190.064 45.416C190.334 46.4492 190.424 47.3926 190.289 47.4824C189.975 47.7969 186.785 48.4707 185.662 48.5156C184.854 48.5156 184.629 48.2461 184.629 47.4375C184.629 43.4844 180.586 41.5977 179.238 44.9219C178.295 47.2129 179.283 48.9648 183.551 52.6035C189.076 57.2754 190.918 60.3301 190.918 64.6875C190.918 67.6973 189.346 70.4824 186.83 71.875C183.057 73.9863 177.082 72.9531 174.836 69.7637C173.668 68.1465 172.814 65.2266 173.039 63.5645C173.174 62.3516 173.354 62.2168 175.734 61.7227C177.172 61.4531 178.43 61.3184 178.564 61.4531C178.699 61.5879 178.789 62.3965 178.789 63.2051C178.789 65.002 179.822 67.1582 180.811 67.5625C183.012 68.3711 184.629 67.248 184.629 64.8672C184.629 62.4414 183.641 61.0039 179.373 57.2754C173.893 52.5137 173.219 51.4355 173.039 47.3926C172.859 44.6074 172.994 43.7988 173.848 42.3164C174.836 40.5645 176.453 39.3066 178.699 38.5879C180.406 38.0488 184.674 38.4082 186.291 39.2617ZM325.639 39.666C329.008 41.9121 329.951 46.1797 329.637 57.9492C329.367 66.7988 328.918 68.6855 326.357 70.9316C322.18 74.5703 313.465 73.3125 311.084 68.7305C309.916 66.4844 309.377 60.4199 309.602 52.6934C309.826 45.9551 309.916 45.2363 311.039 42.9453C312.926 39.127 315.082 38.0938 320.652 38.4082C323.258 38.543 324.336 38.8125 325.639 39.666ZM405.375 38.6328C407.846 39.1719 409.238 40.3398 410.586 42.9453C411.709 45.1016 411.709 45.3262 411.709 55.2539C411.709 66.6641 411.35 68.4609 408.564 70.9316C406.498 72.7285 402.814 73.4922 399.49 72.8184C396.436 72.2344 394.684 70.9766 393.381 68.5957C392.438 66.7988 392.393 66.2148 392.393 55.4785C392.393 44.5176 392.438 44.2031 393.426 42.4062C395.492 38.8574 400.119 37.375 405.375 38.6328ZM108.621 55.5684L108.486 72.5488H105.342H102.197L102.062 55.5684L101.973 38.6328H105.342H108.711L108.621 55.5684ZM118.729 45.4609C120.346 49.2344 122.098 53.2324 122.592 54.3555L123.49 56.377V47.4824L123.535 38.5879L126.365 38.7227L129.15 38.8574V55.7031V72.5488H126.949H124.703L120.885 63.25L117.021 53.9512L116.797 63.25L116.572 72.5488L114.012 72.6836L111.406 72.8184V55.7031V38.6328H113.607H115.764L118.729 45.4609ZM145.996 39.8457C150.084 41.957 150.264 42.6309 150.264 55.4785C150.264 66.1699 150.264 66.2598 149.141 68.2812C148.377 69.584 147.344 70.6621 146.086 71.3809C144.289 72.3242 143.57 72.459 138 72.5039L131.846 72.5488L131.711 55.5684L131.621 38.6328H137.596C143.256 38.6328 143.705 38.7227 145.996 39.8457ZM158.574 51.9297C158.574 67.3379 158.664 67.7871 162.033 67.832C163.111 67.832 163.695 67.5176 164.279 66.6191C164.998 65.541 165.088 63.9238 165.223 52.0195L165.402 38.6328H168.502H171.602V50.1777C171.602 65.9902 170.928 69.584 167.828 71.4707C164.279 73.627 158.215 73.4473 155.43 71.1113C152.555 68.6855 152.51 68.5957 152.375 52.873L152.24 38.6328H155.385H158.574V51.9297ZM233.549 43.2148C234.357 45.7754 235.256 48.6504 235.57 49.6387L236.154 51.4355L236.918 48.7402C237.367 47.2578 238.221 44.3828 238.805 42.3164L239.928 38.6328H242.848C244.51 38.6328 245.723 38.8125 245.723 39.082C245.723 39.3516 244.24 43.9336 242.488 49.3242L239.209 59.0723L239.074 65.9004L238.939 72.7734H236.02H233.145V66.6191V60.4648L229.82 50.3125C227.979 44.7422 226.316 39.8457 226.137 39.3965C225.912 38.7227 226.227 38.6328 229.012 38.6328H232.111L233.549 43.2148ZM266.836 55.7031V72.7734H263.691H260.547V55.7031V38.6328H263.691H266.836V55.7031ZM278.021 47.752L281.885 56.6465L282.02 47.6172L282.109 38.6328H284.805H287.5L287.41 55.5684L287.275 72.5488L285.209 72.6836L283.188 72.8184L279.459 63.9238C277.438 59.0273 275.596 54.7148 275.371 54.3555C275.102 53.9062 274.922 57.0059 274.922 63.25V72.8184L272.361 72.6836L269.756 72.5488L269.621 55.5684L269.531 38.5879L271.867 38.7227L274.203 38.8574L278.021 47.752ZM298.326 47.4375L302.1 56.2422L302.234 47.4375L302.324 38.6328H305.02H307.715V55.748V72.8184L305.604 72.6836L303.447 72.5488L299.629 63.3848L295.811 54.1758L295.586 63.3848L295.361 72.5488H292.666H289.971L289.836 56.1523C289.791 47.123 289.836 39.4863 289.971 39.2168C290.105 38.8574 291.004 38.6328 292.352 38.6328H294.553L298.326 47.4375ZM336.555 42.9004C336.959 45.1016 337.902 49.9531 338.621 53.6816L339.924 60.4199L340.418 58.1738C340.688 56.916 341.541 52.2891 342.305 47.8418C343.068 43.3945 343.787 39.4863 343.877 39.1719C344.012 38.8125 345.045 38.6328 347.021 38.6328C348.639 38.6328 349.941 38.7227 349.941 38.8125C349.941 38.9473 349.447 41.2832 348.863 44.1133C348.234 46.8984 346.707 54.3555 345.449 60.6445C344.191 66.9336 342.979 72.2793 342.799 72.459C342.574 72.6387 341.137 72.7734 339.564 72.6836L336.689 72.5488L333.275 55.5684L329.861 38.5879L332.826 38.7227L335.746 38.8574L336.555 42.9004ZM361.98 40.7441C362.924 45.1016 368.359 72.2793 368.359 72.5488C368.359 72.6836 367.012 72.7734 365.35 72.6836L362.295 72.5488L361.621 68.7305L360.947 64.9121L358.207 64.7773L355.467 64.6426L354.928 68.1465C354.613 70.0781 354.254 71.9199 354.164 72.1895C354.074 72.5938 353.041 72.7734 351.064 72.7734C348.594 72.7734 348.145 72.6387 348.145 71.9648C348.145 71.1562 354.254 40.834 354.703 39.3965C354.883 38.7676 355.512 38.6328 358.252 38.6328H361.531L361.98 40.7441ZM383.184 41.1035V43.5742H380.488H377.793L377.703 58.0391L377.568 72.5488H374.424H371.279L371.145 58.0391L371.055 43.5742H368.359H365.664V41.1035V38.6328H374.424H383.184V41.1035ZM389.922 55.7031V72.7734H386.777H383.633V55.7031V38.6328H386.777H389.922V55.7031ZM422.041 47.2578C424.062 51.9297 425.859 55.8379 425.994 56.0176C426.174 56.1523 426.309 52.334 426.309 47.4824V38.6328H429.004H431.699L431.609 55.5684L431.475 72.5488L429.408 72.6836L427.342 72.8184L424.602 66.1699C423.119 62.5312 421.277 58.2188 420.514 56.6016L419.166 53.6816V63.2051L419.121 72.7734H416.426H413.73V55.6582V38.5879L416.066 38.7227L418.402 38.8574L422.041 47.2578ZM251.113 69.4492C251.113 73.1328 250.305 75.7383 248.777 77.041C247.25 78.3438 245.947 78.4785 245.543 77.4453C245.049 76.1875 245.229 75.5586 246.172 75.334C246.666 75.1992 247.25 74.6152 247.475 74.0312C247.834 73.0879 247.699 72.9531 246.441 72.7734C245.094 72.5488 245.049 72.5039 244.914 69.7188L244.779 66.9336H247.969H251.113V69.4492ZM270.969 93.4375C274.203 94.3359 276.449 97.3457 276.809 101.254C276.943 102.467 276.809 102.602 275.146 102.961C274.158 103.141 272.9 103.41 272.406 103.545C271.553 103.725 271.418 103.5 271.148 101.928C270.699 99.0527 270.16 98.3789 268.408 98.3789C266.387 98.3789 265.264 99.9512 265.668 102.152C265.893 103.365 266.926 104.578 270.475 107.857C276.225 113.158 277.348 115 277.393 119.223C277.393 121.783 277.168 122.727 276.359 124.074C275.012 126.23 272.855 127.533 270.115 127.848C264.275 128.566 260.188 125.062 259.559 118.818C259.424 117.516 259.514 117.426 261.984 116.842C263.422 116.482 264.68 116.258 264.814 116.393C264.949 116.527 265.219 117.605 265.443 118.773C265.982 121.604 267.016 122.727 269.037 122.547C271.059 122.367 271.732 120.84 270.969 118.279C270.34 116.258 269.576 115.359 264.904 111.227C260.682 107.498 259.559 105.521 259.514 101.748C259.469 97.5254 261.355 94.8301 265.084 93.6621C267.51 92.8984 268.812 92.8535 270.969 93.4375ZM352.412 94.1562C355.152 95.459 356.365 97.7949 356.59 102.242L356.814 106.016H353.58H350.391V103.051C350.391 99.6816 349.941 98.6035 348.414 98.1992C346.527 97.75 345.09 98.6035 344.596 100.49C344.012 102.602 343.967 117.695 344.551 120.166C345.18 122.906 347.291 123.895 349.268 122.457C349.986 121.918 350.166 121.154 350.301 118.189L350.48 114.551H353.625H356.77L356.635 118.234C356.365 124.209 354.254 127.084 349.672 127.803C343.338 128.746 338.711 125.736 338.037 120.256C337.857 118.953 337.812 113.652 337.902 108.486C338.037 98.334 338.217 97.5703 340.643 95.3242C343.113 92.9883 348.818 92.4492 352.412 94.1562ZM117.111 109.609C118.908 118.369 120.346 126.006 120.391 126.545C120.391 127.533 120.211 127.578 117.516 127.578C114.73 127.578 114.596 127.533 114.371 126.32C114.236 125.646 113.922 123.939 113.652 122.502L113.158 119.941H110.508C107.543 119.941 107.768 119.627 106.914 124.523L106.375 127.578H103.275C100.266 127.578 100.176 127.533 100.4 126.545C100.895 124.389 106.105 98.4688 106.555 95.998L107.004 93.3926L110.418 93.5273L113.832 93.6621L117.111 109.609ZM130.318 102.287L134.092 111.137L134.227 102.287L134.316 93.4375H137.012H139.707V110.508V127.578H137.596H135.439L134.047 124.074C133.238 122.188 131.531 118.01 130.229 114.82L127.803 108.98L127.668 118.279L127.578 127.623L124.748 127.488L121.963 127.354L121.828 110.957C121.783 101.928 121.828 94.291 121.963 94.0215C122.098 93.6621 122.996 93.4375 124.344 93.4375H126.5L130.318 102.287ZM156.553 94.291C158.215 94.9648 159.787 96.4023 160.73 98.1543C161.854 100.131 162.123 117.92 161.09 121.379C159.697 126.186 156.822 127.578 148.422 127.578H142.852V110.463V93.3027L149.051 93.5273C152.42 93.6621 155.834 94.0215 156.553 94.291ZM179.238 110.508V127.578H176.094H172.949V110.508V93.4375H176.094H179.238V110.508ZM188.896 97.75C189.885 99.9961 191.592 103.949 192.715 106.51L194.736 111.182L194.871 102.287L194.961 93.4375H197.656H200.352V110.508V127.578H198.195H196.039L192.266 118.369L188.447 109.16L188.312 118.369L188.223 127.578H185.303H182.383V110.822C182.383 101.568 182.518 93.8867 182.697 93.707C182.877 93.5273 183.955 93.4375 185.033 93.5273L187.1 93.6621L188.896 97.75ZM217.422 95.9082V98.3789H213.604H209.785V102.871V107.363H212.93H216.074V109.834V112.305H212.93H209.785V119.941V127.578H206.641H203.496V110.508V93.4375H210.459H217.422V95.9082ZM233.639 94.8301C236.334 96.2676 237.637 98.918 237.637 102.736C237.637 106.061 236.648 108.801 234.941 110.193L233.684 111.182L235.885 118.818C237.098 122.996 238.086 126.725 238.086 126.994C238.086 127.398 237.143 127.578 234.986 127.578H231.887L231.393 126.096C231.168 125.332 230.314 122.232 229.551 119.268C228.787 116.303 228.068 113.518 227.934 113.068C227.799 112.619 227.26 112.305 226.586 112.305H225.508V119.941V127.578H222.139H218.77V110.463V93.3027L225.238 93.5273C230.943 93.707 231.887 93.8867 233.639 94.8301ZM252.191 94.2012C252.641 95.6387 258.75 125.961 258.75 126.77C258.75 127.443 258.301 127.578 255.875 127.578C252.91 127.578 252.461 127.309 252.461 125.332C252.461 124.838 252.236 123.445 251.967 122.188L251.473 119.896L248.732 120.031L245.992 120.166L245.678 121.738C245.498 122.592 245.229 124.254 245.049 125.422L244.779 127.578H241.635C239.928 127.578 238.535 127.488 238.535 127.398C238.535 127.309 240.062 119.807 241.904 110.688C243.746 101.568 245.273 93.9766 245.273 93.7969C245.273 93.5723 246.756 93.4375 248.598 93.4375C251.383 93.4375 252.012 93.5723 252.191 94.2012ZM294.238 95.9082V98.3789H291.543H288.848V112.979V127.578H285.703H282.559L282.469 113.068L282.334 98.6035L279.549 98.4688L276.719 98.334V95.9082V93.4375H285.479H294.238V95.9082ZM309.062 94.4258C314.363 96.7617 315.666 104.982 311.488 109.609L309.916 111.316L311.982 118.684C313.105 122.682 314.139 126.365 314.273 126.77C314.498 127.488 314.139 127.578 311.129 127.578H307.805L307.355 125.646C307.131 124.613 306.277 121.199 305.469 118.01C303.986 112.395 303.941 112.305 302.684 112.305H301.426V119.941V127.578H298.281H295.137V110.463V93.3027L301.336 93.5273C305.469 93.6621 307.984 93.9766 309.062 94.4258ZM322.539 106.465C322.539 116.617 322.674 119.852 323.168 121.02C324.471 124.164 328.289 123.266 328.918 119.672C329.098 118.729 329.232 112.395 329.232 105.656L329.277 93.4375H332.467H335.656L335.477 107.229C335.342 120.93 335.342 121.064 334.219 123.311C332.871 126.006 330.939 127.398 327.93 127.803C322.314 128.566 318.227 126.455 316.924 122.008C316.385 120.256 316.25 116.932 316.25 106.6V93.4375H319.395H322.539V106.465ZM374.199 95.9082V98.3789H371.504H368.809V112.979V127.623L365.574 127.488L362.295 127.354L362.16 112.844L362.07 98.3789H359.375H356.68V95.9082V93.4375H365.439H374.199V95.9082ZM380.938 106.105C380.938 113.652 381.117 119.492 381.432 120.525C381.926 122.367 383.363 123.266 385.16 122.816C387.316 122.277 387.451 121.559 387.586 107.004L387.721 93.4375H390.865H393.965V106.016C393.965 119.223 393.65 122.053 392.033 124.523C390.371 126.949 388.395 127.803 384.307 127.803C379.725 127.803 377.389 126.635 375.906 123.58C374.918 121.604 374.873 120.975 374.738 107.453L374.604 93.4375H377.748H380.938V106.105ZM411.305 94.8301C413.865 96.1328 415.168 98.334 415.438 101.838C415.707 105.072 414.809 108.037 413.012 109.789L411.529 111.227L413.73 119.043C414.988 123.355 415.977 127.084 415.977 127.264C415.977 127.443 414.539 127.578 412.742 127.488C409.777 127.354 409.508 127.264 409.193 126.23C409.014 125.602 408.115 122.232 407.172 118.684C405.645 112.754 405.42 112.305 404.477 112.305H403.398L403.309 119.807L403.174 127.354L399.939 127.488L396.66 127.623V110.463V93.3027L402.904 93.5273C408.43 93.707 409.418 93.8418 411.305 94.8301ZM432.598 95.9082V98.3789H428.555H424.512V102.871V107.363H427.656H430.801V109.834V112.305H427.656H424.512V117.471V122.592L428.465 122.727L432.373 122.861L432.508 125.197L432.643 127.578H425.455H418.223V110.508V93.4375H425.41H432.598V95.9082ZM262.973 187.549C279.01 196.803 292.352 204.574 292.621 204.844C292.98 205.203 293.205 215.4 293.34 238.176L293.564 271.014L321.416 287.096C336.689 295.9 349.492 303.492 349.807 303.941C350.256 304.57 350.391 311.668 350.391 338.98V373.256L349.402 374.379C348.818 375.008 345.359 377.299 341.631 379.41C337.947 381.521 330.131 386.014 324.336 389.383C318.541 392.707 311.264 396.885 308.164 398.682C305.064 400.434 299.854 403.443 296.619 405.33C293.34 407.262 290.195 408.789 289.566 408.789C288.938 408.789 276.359 401.781 260.502 392.617C235.166 378.018 232.426 376.535 231.572 377.029C225.104 381.162 176.408 408.789 175.6 408.789C174.971 408.789 169.535 405.914 163.516 402.455C157.451 398.951 149.994 394.639 146.895 392.842C136.922 387.137 120.211 377.479 117.92 376.131C116.707 375.412 115.404 374.334 115.135 373.705C114.686 372.852 114.596 365.08 114.686 338.666C114.775 306.771 114.82 304.615 115.584 303.762C116.033 303.312 128.791 295.721 143.975 287.006L171.557 271.104L171.602 238.67V206.236L172.635 205.113C174.252 203.316 230.898 170.748 232.471 170.748C233.459 170.703 241.725 175.24 262.973 187.549Z" fill="white"/>
<path d="M55.6581 52.4687C53.5917 54.3105 53.0077 57.4551 53.0527 67.1582C53.0527 77.6699 53.7265 79.7812 57.5898 80.9492C59.9257 81.623 62.3964 80.8594 64.1933 78.8379L65.5859 77.2207V69.8535C65.5859 55.3887 64.1484 51.2109 59.207 51.2109C57.4999 51.2109 56.7812 51.4805 55.6581 52.4687Z" fill="white"/>
<path d="M213.828 48.0215V53.0078H215.311C218.59 53.0078 220.432 50.4023 219.848 46.7188C219.488 44.4727 218.41 43.5293 215.85 43.2598L213.828 42.9902V48.0215Z" fill="white"/>
<path d="M317.553 43.9785C316.475 44.832 316.475 45.0117 316.34 53.7266C316.115 66.5742 316.43 67.832 319.844 67.832C322.853 67.832 323.078 66.9336 322.898 54.9844C322.764 44.9219 322.764 44.832 321.685 43.9785C320.338 42.9004 318.9 42.9004 317.553 43.9785Z" fill="white"/>
<path d="M399.895 43.8437C398.906 44.5176 398.906 44.6523 398.906 55.4785C398.906 67.9219 398.906 67.9668 402.186 67.7422C405.061 67.5176 405.195 66.9785 405.195 55.5683C405.195 45.9551 404.971 44.3379 403.668 43.4844C402.814 42.9004 400.973 43.0801 399.895 43.8437Z" fill="white"/>
<path d="M137.91 55.7031V67.832H139.887C141.504 67.832 142.043 67.6074 142.807 66.6641C143.705 65.541 143.75 64.9121 143.75 55.5234C143.75 43.7539 143.705 43.5742 140.111 43.5742H137.91V55.7031Z" fill="white"/>
<path d="M358.072 48.7402C358.072 48.9648 357.623 51.6152 357.129 54.5801C356.68 57.5 356.365 60.0156 356.41 60.1055C356.5 60.1953 357.353 60.1953 358.342 60.1055L360.049 59.9707L359.105 54.1309C358.566 50.8965 358.117 48.4707 358.072 48.7402Z" fill="white"/>
<path d="M109.475 109.295C109.025 112.035 108.711 114.596 108.711 114.865C108.711 115.225 109.385 115.449 110.508 115.449C111.811 115.449 112.305 115.27 112.305 114.775C112.305 113.428 110.822 104.893 110.553 104.578C110.373 104.398 109.924 106.51 109.475 109.295Z" fill="white"/>
<path d="M149.59 110.508V122.637H151.566C154.891 122.637 154.98 122.322 154.98 110.418C154.98 100.76 154.936 100.131 154.082 99.2773C153.498 98.6934 152.6 98.3789 151.387 98.3789H149.59V110.508Z" fill="white"/>
<path d="M225.508 103.141V107.947L227.619 107.678C230.674 107.363 231.482 106.195 231.258 102.467C231.033 99.0977 230.359 98.3789 227.439 98.3789H225.508V103.141Z" fill="white"/>
<path d="M247.834 108.845C246.801 115.763 246.756 115.449 248.867 115.449C249.99 115.449 250.664 115.224 250.664 114.865C250.619 113.877 249.002 104.174 248.777 103.994C248.687 103.904 248.283 106.105 247.834 108.845Z" fill="white"/>
<path d="M301.426 103.096V107.812H302.998C306.457 107.812 308.119 105.611 307.535 101.838C307.086 99.1426 306.188 98.3789 303.582 98.3789H301.426V103.096Z" fill="white"/>
<path d="M403.398 103.141V107.947L405.465 107.678C408.385 107.363 409.014 106.555 409.014 103.141C409.014 99.457 408.16 98.3789 405.33 98.3789H403.398V103.141Z" fill="white"/>
<path d="M179.688 240.467V266.342L184.988 263.287C187.863 261.625 194.916 257.537 200.576 254.258C206.281 250.979 213.469 246.801 216.613 245.004C223.531 241.006 224.16 240.646 224.16 240.332C224.16 240.197 223.621 239.793 222.902 239.389C222.229 238.984 219.084 237.143 215.85 235.301C212.66 233.459 207.27 230.359 203.945 228.428C200.621 226.496 196.488 224.115 194.736 223.127C193.029 222.139 189.256 219.982 186.381 218.275C183.506 216.568 180.855 215.086 180.406 214.906C179.732 214.637 179.688 216.658 179.688 240.467Z" fill="white"/>
<path d="M270.43 223.037C262.658 227.574 252.775 233.279 248.553 235.705C244.285 238.131 240.781 240.197 240.781 240.332C240.781 240.512 271.104 258.166 283.098 264.949L285.703 266.432V240.602C285.703 220.162 285.568 214.727 285.164 214.771C284.85 214.771 278.201 218.5 270.43 223.037Z" fill="white"/>
<path d="M220.567 251.877C216.479 254.258 210.639 257.627 207.539 259.424C204.44 261.221 200.127 263.736 197.881 264.994C195.68 266.297 191.547 268.678 188.762 270.295C184.27 272.9 183.775 273.305 184.494 273.799C185.078 274.158 224.07 296.664 228.338 299.045C228.518 299.135 228.652 287.59 228.652 273.395C228.652 259.154 228.518 247.52 228.338 247.52C228.113 247.52 224.654 249.496 220.567 251.877Z" fill="white"/>
<path d="M236.738 273.395V299.27L237.771 298.641C238.311 298.281 248.328 292.441 260.008 285.703C277.078 275.865 281.166 273.35 280.672 272.9C280.357 272.586 273.844 268.768 266.162 264.365C258.525 259.963 251.113 255.74 249.766 254.932C243.432 251.203 237.098 247.52 236.918 247.52C236.828 247.52 236.738 259.154 236.738 273.395Z" fill="white"/>
<path d="M265.039 291.992C251.832 299.629 241.006 306.008 241.006 306.143C241.006 306.682 289.117 334.219 289.791 334.039C290.51 333.904 337.273 306.996 337.947 306.412C338.352 306.008 339.07 306.412 311.039 290.285C299.359 283.547 289.656 278.067 289.477 278.067C289.252 278.111 278.246 284.356 265.039 291.992Z" fill="white"/>
<path d="M122.727 341.406L122.861 369.797L147.119 383.813L171.377 397.828L171.512 369.752C171.602 347.65 171.467 341.541 171.062 341.137C170.748 340.867 159.877 334.488 146.895 327.031C133.912 319.574 123.176 313.375 122.951 313.24C122.771 313.15 122.682 325.818 122.727 341.406Z" fill="white"/>
<path d="M206.102 326.043C193.838 333.141 183.91 339.07 184.09 339.25C184.809 339.924 228.293 364.811 228.473 364.631C228.562 364.541 228.607 352.906 228.562 338.801L228.428 313.15L206.102 326.043Z" fill="white"/>
<path d="M317.822 327.256L293.564 341.316L293.43 369.707L293.34 398.098L295.811 396.66C297.158 395.896 299.359 394.594 300.707 393.83C302.01 393.021 311.893 387.316 322.674 381.162L342.26 369.932L342.305 341.496C342.305 325.908 342.26 313.105 342.215 313.15C342.125 313.15 331.164 319.529 317.822 327.256Z" fill="white"/>
<path d="M179.688 371.773C179.688 385.969 179.822 397.559 179.957 397.559C180.586 397.559 224.16 372.178 224.07 371.863C223.98 371.684 213.963 365.799 201.834 358.746L179.688 345.988V371.773Z" fill="white"/>
</g>
<defs>
<clipPath id="clip0_269_88">
<rect width="460" height="460" fill="white"/>
</clipPath>
</defs>
</svg>
