<svg width="136" height="72" viewBox="0 0 136 72" fill="none" xmlns="http://www.w3.org/2000/svg">
<path d="M25.6841 66.6442C24.5282 68.053 22.9027 69.1366 20.7716 69.9313C18.6404 70.7259 16.2925 71.1233 13.6917 71.1233C10.9826 71.1594 8.59861 70.5815 6.53968 69.3895C4.48076 68.2336 2.89142 66.4997 1.77165 64.2602C0.651884 62.0207 0.037818 59.3477 0.00169651 56.3135V54.1823C-0.034425 51.0397 0.507399 48.3306 1.5188 46.0188C2.56632 43.7071 4.08342 41.9371 6.0701 40.709C8.05679 39.4809 10.3686 38.8668 13.0777 38.8307C16.7982 38.7946 19.724 39.6615 21.8552 41.4314C23.9864 43.2014 25.2145 45.766 25.648 49.1614L19.3267 49.1975C19.0377 47.3915 18.3875 46.0911 17.3761 45.2603C16.4009 44.4295 15.0282 44.0322 13.2944 44.0322C11.091 44.0322 9.42941 44.8991 8.27352 46.5607C7.11763 48.2223 6.57581 50.6785 6.57581 53.9656V55.9884C6.61193 59.2754 7.226 61.7678 8.49025 63.4294C9.7545 65.091 11.5967 65.9218 14.0168 65.9218C16.437 65.9218 18.1708 65.38 19.2183 64.3324L19.1822 58.9142L13.2944 58.9503L13.2583 54.1823L25.6118 54.1101L25.6841 66.6442Z" fill="white"/>
<path d="M79.1799 63.7905L67.8377 63.8628L65.7066 70.3646L58.8074 70.4008L70.294 38.9028L76.2902 38.8667L88.2825 70.2201L81.3833 70.2563L79.1799 63.7905ZM69.5355 58.589L77.4099 58.5529L73.3643 46.8134L69.5355 58.589Z" fill="white"/>
<path d="M96.6627 64.9469L110.425 64.8385L110.461 70.04L90.2331 70.1845L90.0164 38.7588L96.5182 38.7227L96.6627 64.9469Z" fill="white"/>
<path d="M129.461 61.6591C129.461 60.431 129.028 59.4918 128.161 58.8416C127.294 58.1914 125.741 57.5051 123.501 56.7827C121.261 56.0603 119.455 55.374 118.155 54.6877C114.579 52.7732 112.773 50.2086 112.737 46.9215C112.737 45.2238 113.206 43.7067 114.146 42.3702C115.085 41.0337 116.457 39.9862 118.263 39.2277C120.033 38.4691 122.056 38.0718 124.296 38.0718C126.535 38.0718 128.558 38.433 130.292 39.2638C132.062 40.0585 133.434 41.2143 134.41 42.6953C135.385 44.1763 135.891 45.8379 135.891 47.7523L129.425 47.7885C129.425 46.3436 128.955 45.2238 128.052 44.4292C127.149 43.6345 125.849 43.2372 124.223 43.2733C122.634 43.2733 121.406 43.6345 120.539 44.2847C119.672 44.971 119.239 45.8379 119.239 46.9215C119.239 47.9329 119.78 48.7999 120.792 49.4862C121.839 50.1725 123.357 50.8227 125.343 51.4006C129.028 52.4842 131.737 53.8569 133.434 55.4823C135.132 57.1078 135.999 59.1667 135.999 61.5869C136.035 64.296 134.988 66.4633 132.965 68.0165C130.906 69.5697 128.161 70.3644 124.657 70.4005C122.237 70.4005 120.033 70.0032 118.047 69.1001C116.06 68.2332 114.543 67.0412 113.495 65.488C112.448 63.9709 111.906 62.1648 111.906 60.142L118.408 60.1059C118.444 63.5735 120.503 65.3074 124.657 65.2713C126.21 65.2713 127.402 64.9462 128.269 64.296C129.028 63.6819 129.461 62.7789 129.461 61.6591Z" fill="white"/>
<path d="M37.1707 50.4617C37.568 49.8115 38.0376 49.1974 38.5794 48.6556L33.9559 43.5264C32.8 44.6461 31.7886 45.9465 30.9939 47.3552L37.1707 50.4617Z" fill="#64B448"/>
<path d="M48.5491 46.8496C49.2354 47.1746 49.9217 47.572 50.4996 48.0777L55.1593 42.9845C53.9312 41.937 52.5586 41.0701 51.0415 40.4199L48.5491 46.8496Z" fill="#D09F29"/>
<path d="M59.241 48.3667L53.0642 51.437C53.3532 52.1233 53.5699 52.8458 53.6783 53.6043L60.5414 52.9541C60.3246 51.3648 59.8912 49.8116 59.241 48.3667Z" fill="#C32033"/>
<path d="M52.6307 50.5701L58.8074 47.4998C58.0489 46.091 57.0736 44.7907 55.9177 43.6709L51.2581 48.764C51.7638 49.3059 52.2333 49.8838 52.6307 50.5701Z" fill="#2D9A47"/>
<path d="M35.9424 54.9411C35.9424 54.7966 35.9424 54.6521 35.9424 54.5076L29.0793 53.8936C29.0432 54.2186 29.0432 54.5799 29.0432 54.9411C29.0432 56.2414 29.2238 57.5418 29.5128 58.77L36.1591 56.8555C36.0147 56.2414 35.9424 55.6274 35.9424 54.9411Z" fill="#48773C"/>
<path d="M51.7639 60.6123C51.2582 61.1902 50.7164 61.7321 50.1023 62.2017L53.7144 68.0895C55.0509 67.1864 56.2429 66.0667 57.2543 64.8024L51.7639 60.6123Z" fill="#FAB61B"/>
<path d="M53.7866 54.9406C53.7866 55.5908 53.7143 56.241 53.5698 56.8189L60.2162 58.7334C60.5051 57.5052 60.6858 56.241 60.6858 54.9406C60.6858 54.6155 60.6858 54.2904 60.6496 53.9653L53.7866 54.6155C53.7866 54.7239 53.7866 54.8323 53.7866 54.9406Z" fill="#E8422E"/>
<path d="M38.0737 60.7202L32.5833 64.8742C33.5947 66.1384 34.8228 67.2221 36.1593 68.1251L39.7714 62.2734C39.1574 61.84 38.5794 61.3343 38.0737 60.7202Z" fill="#F59C28"/>
<path d="M36.0872 53.532C36.1956 52.7735 36.4484 52.0149 36.7374 51.3286L30.5606 48.2583C29.8743 49.7032 29.4047 51.2925 29.188 52.918L36.0872 53.532Z" fill="#027DBC"/>
<path d="M52.8473 68.5587L49.2352 62.707C48.585 63.0682 47.8626 63.3572 47.1401 63.5739L48.4044 70.3648C49.9937 69.9674 51.4747 69.3895 52.8473 68.5587Z" fill="#8F1839"/>
<path d="M53.3171 57.7939C53.0642 58.5164 52.7391 59.1666 52.3418 59.7806L57.8323 63.9346C58.7353 62.6342 59.4216 61.2255 59.9273 59.7084L53.3171 57.7939Z" fill="#01ADD8"/>
<path d="M46.1649 63.7544C45.7314 63.8266 45.3341 63.8628 44.8645 63.8628C44.5033 63.8628 44.1782 63.8266 43.817 63.7905L42.5527 70.5814C43.3113 70.6897 44.0698 70.762 44.8645 70.762C45.7314 70.762 46.5983 70.6897 47.4291 70.5452L46.1649 63.7544Z" fill="#ED6E28"/>
<path d="M45.4426 46.055C46.2012 46.0911 46.9597 46.2356 47.646 46.4884L50.1384 40.0588C48.6574 39.5531 47.1042 39.228 45.4426 39.1558V46.055Z" fill="#E52330"/>
<path d="M42.8417 63.6457C42.0831 63.4651 41.3246 63.1762 40.6383 62.8149L37.0261 68.6666C38.4349 69.4613 39.952 70.0392 41.5774 70.4005L42.8417 63.6457Z" fill="#E01C83"/>
<path d="M42.1914 46.4523C42.9138 46.2356 43.6723 46.0911 44.4309 46.055V39.1558C42.7693 39.1919 41.18 39.517 39.699 40.0227L42.1914 46.4523Z" fill="#1E3666"/>
<path d="M37.4959 59.9256C37.0624 59.2754 36.7012 58.5891 36.4484 57.8306L29.8381 59.745C30.3438 61.3343 31.0663 62.8153 32.0415 64.1157L37.4959 59.9256Z" fill="#CD8B2A"/>
<path d="M39.3379 47.9693C39.9158 47.4997 40.566 47.1024 41.2523 46.8134L38.7599 40.3838C37.279 40.9979 35.9064 41.8648 34.6782 42.8762L39.3379 47.9693Z" fill="#00568B"/>
<path d="M8.20116 10.692C8.20116 10.1863 8.02055 9.78892 7.65934 9.49995C7.29812 9.21098 6.68405 8.92201 5.78102 8.63303C4.87798 8.34406 4.15555 8.05509 3.57761 7.76612C1.73541 6.86308 0.796253 5.59883 0.796253 4.00949C0.796253 3.21481 1.01298 2.52851 1.48256 1.91444C1.95214 1.30037 2.60233 0.830792 3.43312 0.505699C4.26391 0.180605 5.23919 0 6.28672 0C7.33424 0 8.23728 0.180607 9.06807 0.541822C9.89887 0.903037 10.5129 1.44486 10.9825 2.13117C11.4521 2.81747 11.6688 3.57603 11.6688 4.47906H8.23728C8.23728 3.90112 8.05667 3.43154 7.69545 3.10645C7.33424 2.78136 6.86466 2.63687 6.25059 2.63687C5.63653 2.63687 5.13083 2.78135 4.76962 3.0342C4.4084 3.32317 4.22779 3.64827 4.22779 4.08173C4.22779 4.44294 4.4084 4.76804 4.80574 5.09313C5.20307 5.3821 5.88938 5.70719 6.90078 6.03229C7.91218 6.35738 8.70686 6.68248 9.35704 7.07981C10.9103 7.98285 11.6688 9.21098 11.6688 10.7642C11.6688 12.0285 11.1992 13.0037 10.2601 13.7262C9.32092 14.4486 8.02055 14.8098 6.35896 14.8098C5.20307 14.8098 4.15555 14.5931 3.21639 14.1957C2.27723 13.7623 1.5548 13.2205 1.08522 12.498C0.615643 11.7756 0.362793 10.9448 0.362793 10.0057H3.83046C3.83046 10.7642 4.04719 11.3421 4.44452 11.7034C4.84186 12.0646 5.49205 12.2452 6.39508 12.2452C6.97303 12.2452 7.40649 12.1368 7.7677 11.884C8.05667 11.4866 8.20116 11.1254 8.20116 10.692Z" fill="white"/>
<path d="M24.8895 0.144531V9.53612C24.8895 10.5836 24.6728 11.5228 24.2032 12.3175C23.7336 13.1121 23.0834 13.6901 22.2527 14.0874C21.4219 14.4848 20.4105 14.7015 19.2546 14.7015C17.5207 14.7015 16.1481 14.2319 15.1367 13.3289C14.1253 12.4258 13.6196 11.1977 13.5835 9.60836V0.144531H17.0512V9.6806C17.0873 11.2338 17.8097 12.0285 19.2546 12.0285C19.977 12.0285 20.5188 11.8479 20.88 11.4506C21.2413 11.0532 21.4219 10.403 21.4219 9.53612V0.180652H24.8895V0.144531Z" fill="white"/>
<path d="M34.6785 10.692C34.6785 10.1863 34.4978 9.78892 34.1366 9.49995C33.7754 9.21098 33.1613 8.92201 32.2583 8.63303C31.3553 8.34406 30.6328 8.05509 30.0549 7.76612C28.2127 6.86308 27.2736 5.59883 27.2736 4.00949C27.2736 3.21481 27.4903 2.52851 27.9599 1.91444C28.4294 1.30037 29.0796 0.830792 29.9104 0.505699C30.7412 0.180605 31.7165 0 32.764 0C33.8115 0 34.7146 0.180607 35.5454 0.541822C36.3762 0.903037 36.9902 1.44486 37.4598 2.13117C37.9294 2.81747 38.1461 3.57603 38.1461 4.47906H34.7146C34.7146 3.90112 34.534 3.43154 34.1728 3.10645C33.8115 2.78136 33.342 2.63687 32.7279 2.63687C32.1138 2.63687 31.6081 2.78135 31.2469 3.0342C30.8857 3.32317 30.7051 3.64827 30.7051 4.08173C30.7051 4.44294 30.8857 4.76804 31.283 5.09313C31.6804 5.3821 32.3667 5.70719 33.3781 6.03229C34.3534 6.35738 35.1842 6.68248 35.8343 7.07981C37.3876 7.98285 38.1461 9.21098 38.1461 10.7642C38.1461 12.0285 37.6765 13.0037 36.7374 13.7262C35.7982 14.4486 34.4978 14.8098 32.8363 14.8098C31.6804 14.8098 30.6328 14.5931 29.6937 14.1957C28.7545 13.7623 28.0321 13.2205 27.5625 12.498C27.0929 11.7756 26.8401 10.9448 26.8401 10.0057H30.3078C30.3078 10.7642 30.5245 11.3421 30.9218 11.7034C31.3192 12.0646 31.9693 12.2452 32.8724 12.2452C33.4503 12.2452 33.8838 12.1368 34.245 11.884C34.4978 11.4866 34.6785 11.1254 34.6785 10.692Z" fill="white"/>
<path d="M51.3666 2.81752H47.0681V14.5209H43.6005V2.81752H39.3743V0.144531H51.3666V2.81752Z" fill="white"/>
<path d="M59.9995 11.8118H55.2676L54.4368 14.4848H50.7163L55.99 0.144531H59.241L64.5508 14.4848H60.8303L59.9995 11.8118ZM56.0623 9.1749H59.1326L57.5794 4.19014L56.0623 9.1749Z" fill="white"/>
<path d="M69.4633 0.144531H66.0317V14.4848H69.4633V0.144531Z" fill="white"/>
<path d="M84.0565 14.5209H80.625L75.5319 5.56275V14.5209H72.0642V0.144531H75.5319L80.625 9.10266V0.144531H84.0565V14.5209Z" fill="white"/>
<path d="M94.7845 11.8118H90.0525L89.2217 14.4848H85.5374L90.8111 0.144531H94.062L99.3719 14.4848H95.6514L94.7845 11.8118ZM90.8833 9.1749H93.9537L92.4004 4.19014L90.8833 9.1749Z" fill="white"/>
<path d="M100.564 14.5209V0.180664H105.729C107.572 0.180664 108.98 0.505759 109.956 1.19207C110.931 1.87838 111.4 2.85365 111.4 4.15403C111.4 4.91258 111.22 5.52665 110.895 6.06847C110.57 6.61029 110.064 6.9715 109.378 7.22435C110.136 7.40496 110.714 7.8023 111.111 8.34412C111.509 8.88594 111.726 9.53613 111.726 10.3308C111.726 11.7395 111.292 12.7871 110.389 13.5095C109.486 14.2319 108.186 14.5931 106.416 14.5931H100.564V14.5209ZM104.032 6.14071H105.838C106.596 6.14071 107.138 5.99622 107.463 5.74337C107.788 5.49052 107.933 5.05707 107.933 4.55137C107.933 3.9373 107.752 3.50384 107.427 3.25099C107.066 2.99814 106.524 2.85365 105.729 2.85365H104.032V6.14071ZM104.032 8.41636V11.8479H106.307C106.921 11.8479 107.427 11.7034 107.752 11.4144C108.077 11.1255 108.258 10.7281 108.258 10.2224C108.258 9.03043 107.68 8.41636 106.488 8.41636H104.032Z" fill="white"/>
<path d="M117.252 11.8479H123.284V14.5209H113.784V0.144531H117.252V11.8479Z" fill="white"/>
<path d="M133.832 8.41635H128.414V11.8479H134.843V14.5209H124.946V0.144531H134.843V2.81752H128.414V5.85172H133.832V8.41635Z" fill="white"/>
<path d="M0.796387 33.918V19.8667H5.31157C6.5397 19.8667 7.65947 20.1557 8.67087 20.6975C9.64615 21.2754 10.4408 22.0701 10.9826 23.0815C11.5245 24.0929 11.8134 25.2488 11.8134 26.5492V27.1994C11.8134 28.4997 11.5245 29.6556 10.9826 30.667C10.4408 31.6784 9.68227 32.4731 8.67087 33.051C7.69559 33.629 6.57582 33.918 5.34769 33.918H0.796387ZM4.1918 22.4674V31.3172H5.38381C6.35909 31.3172 7.11764 30.956 7.62335 30.2697C8.12905 29.5834 8.41802 28.5359 8.41802 27.1994V26.5853C8.41802 25.2127 8.16517 24.2013 7.62335 23.515C7.11764 22.8287 6.35909 22.4674 5.34769 22.4674H4.1918Z" fill="white"/>
<path d="M21.5662 27.9579H16.5815V31.3172H22.5054V33.918H13.186V19.8667H22.5415V22.4674H16.5815V25.4294H21.5662V27.9579Z" fill="white"/>
<path d="M29.9464 30.0891L32.7639 19.8667H36.5567L31.8248 33.918H28.1042L23.4084 19.8667H27.1651L29.9464 30.0891Z" fill="white"/>
<path d="M45.8761 27.9579H40.9635V31.3172H46.8513V33.918H37.5681V19.8667H46.8513V22.4674H40.9635V25.4294H45.8761V27.9579Z" fill="white"/>
<path d="M51.4025 31.3172H56.7485V33.918H48.0071V19.8667H51.4025V31.3172Z" fill="white"/>
<path d="M69.3909 27.1632C69.3909 28.5358 69.1381 29.7639 68.6324 30.8114C68.1267 31.859 67.4042 32.6897 66.4651 33.2316C65.5259 33.8095 64.4784 34.0985 63.2503 34.0985C62.0583 34.0985 60.9746 33.8095 60.0716 33.2677C59.1324 32.7259 58.41 31.9312 57.9043 30.9198C57.3986 29.9084 57.1096 28.7164 57.0735 27.3799V26.5852C57.0735 25.2126 57.3263 23.9845 57.832 22.9369C58.3377 21.8894 59.0602 21.0586 59.9993 20.4807C60.9385 19.9027 62.0221 19.6138 63.2141 19.6138C64.4061 19.6138 65.4537 19.9027 66.3928 20.4807C67.332 21.0586 68.0544 21.8533 68.5601 22.9008C69.0658 23.9483 69.3548 25.1404 69.3548 26.513V27.1632H69.3909ZM65.9233 26.5852C65.9233 25.1765 65.7065 24.129 65.2369 23.4065C64.7674 22.6841 64.1172 22.3229 63.2503 22.3229C61.5526 22.3229 60.6495 23.5871 60.5412 26.1518V27.1993C60.5412 28.5719 60.7579 29.6194 61.2275 30.378C61.697 31.1004 62.3472 31.4977 63.2503 31.4977C64.1172 31.4977 64.7674 31.1365 65.2369 30.4141C65.7065 29.6917 65.9233 28.6441 65.9594 27.2715V26.5852H65.9233Z" fill="white"/>
<path d="M74.123 29.1499V33.918H70.7275V19.8667H76.3264C77.41 19.8667 78.3492 20.0473 79.18 20.4446C80.0108 20.842 80.661 21.4199 81.0944 22.1424C81.564 22.8648 81.7807 23.6956 81.7807 24.6347C81.7807 26.0074 81.275 27.091 80.2997 27.9218C79.3245 28.7526 77.988 29.1499 76.2541 29.1499H74.123ZM74.123 26.5131H76.3264C76.9766 26.5131 77.4823 26.3324 77.8435 26.0074C78.2047 25.6823 78.3492 25.2127 78.3492 24.6347C78.3492 23.9845 78.1686 23.4427 77.8074 23.0454C77.4461 22.6481 76.9766 22.4674 76.3625 22.4313H74.0868V26.5131H74.123Z" fill="white"/>
<path d="M87.4879 19.8667L90.6304 29.6556L93.7369 19.8667H98.2159V33.918H94.8205V30.6309L95.1456 23.9123L91.7502 33.918H89.5107L86.0791 23.9123L86.4042 30.6309V33.918H83.0449V19.8667H87.4879Z" fill="white"/>
<path d="M108.113 27.9579H103.092V31.3172H109.052V33.918H99.7332V19.8667H109.089V22.4674H103.092V25.4294H108.113V27.9579Z" fill="white"/>
<path d="M121.948 33.918H118.588L113.604 25.1766V33.918H110.208V19.8667H113.604L118.552 28.6081V19.8667H121.948V33.918Z" fill="white"/>
<path d="M134.843 22.4674H130.617V33.918H127.222V22.4674H123.104V19.8667H134.843V22.4674Z" fill="white"/>
</svg>
